<svg xmlns="http://www.w3.org/2000/svg" viewBox="0 0 64 64">
  <circle cx="32" cy="32" r="30" fill="#FF8C00"/>
  <circle cx="32" cy="32" r="24" fill="#fff" opacity=".1"/>
  <!-- Trophy -->
  <rect x="27" y="44" width="10" height="4" rx="1" fill="#fff"/>
  <rect x="24" y="47" width="16" height="3" rx="1.5" fill="#fff"/>
  <path d="M20 18 h24 l-4 20 H24 z" fill="#fff"/>
  <path d="M20 20 Q12 24 12 28 Q12 34 20 34" stroke="#fff" stroke-width="2.5" fill="none"/>
  <path d="M44 20 Q52 24 52 28 Q52 34 44 34" stroke="#fff" stroke-width="2.5" fill="none"/>
  <polygon points="32,8 33.5,12 38,12 34.5,14.5 36,19 32,16.5 28,19 29.5,14.5 26,12 30.5,12" fill="#fff"/>
</svg>
